<svg width="507" height="162" viewBox="0 0 507 162" fill="none" xmlns="http://www.w3.org/2000/svg">
<path d="M156.4 75.8C151.387 75.8 147.093 74.9733 143.52 73.32C140 71.6133 137.253 69.16 135.28 65.96C133.36 62.7067 132.32 58.7867 132.16 54.2C132.107 51.9067 132.08 49.4533 132.08 46.84C132.08 44.2267 132.107 41.7467 132.16 39.4C132.32 34.92 133.36 31.1067 135.28 27.96C137.253 24.8133 140.027 22.4133 143.6 20.76C147.227 19.0533 151.493 18.2 156.4 18.2C160.347 18.2 163.813 18.7067 166.8 19.72C169.787 20.7333 172.293 22.0667 174.32 23.72C176.347 25.32 177.893 27.08 178.96 29C180.027 30.92 180.587 32.76 180.64 34.52C180.64 35 180.48 35.4267 180.16 35.8C179.84 36.12 179.413 36.28 178.88 36.28H168.96C168.427 36.28 168 36.1733 167.68 35.96C167.413 35.7467 167.173 35.4267 166.96 35C166.587 34.04 165.973 33.08 165.12 32.12C164.32 31.1067 163.227 30.2533 161.84 29.56C160.453 28.8667 158.64 28.52 156.4 28.52C153.04 28.52 150.373 29.4 148.4 31.16C146.48 32.92 145.44 35.8 145.28 39.8C145.12 44.3867 145.12 49.0533 145.28 53.8C145.44 57.96 146.507 60.9467 148.48 62.76C150.507 64.5733 153.2 65.48 156.56 65.48C158.747 65.48 160.693 65.1067 162.4 64.36C164.16 63.56 165.547 62.3333 166.56 60.68C167.573 59.0267 168.08 56.92 168.08 54.36V52.36H159.36C158.827 52.36 158.373 52.1733 158 51.8C157.627 51.3733 157.44 50.8933 157.44 50.36V45.24C157.44 44.6533 157.627 44.1733 158 43.8C158.373 43.4267 158.827 43.24 159.36 43.24H178.96C179.547 43.24 180.027 43.4267 180.4 43.8C180.773 44.1733 180.96 44.6533 180.96 45.24V53.96C180.96 58.5467 179.947 62.4667 177.92 65.72C175.947 68.9733 173.093 71.48 169.36 73.24C165.68 74.9467 161.36 75.8 156.4 75.8ZM208.877 75.8C204.45 75.8 200.744 75.08 197.757 73.64C194.77 72.1467 192.477 70.04 190.877 67.32C189.33 64.6 188.477 61.4267 188.317 57.8C188.264 56.7333 188.237 55.5333 188.237 54.2C188.237 52.8133 188.264 51.6133 188.317 50.6C188.477 46.92 189.384 43.7467 191.037 41.08C192.69 38.36 195.01 36.28 197.997 34.84C200.984 33.3467 204.61 32.6 208.877 32.6C213.09 32.6 216.69 33.3467 219.677 34.84C222.664 36.28 224.984 38.36 226.637 41.08C228.29 43.7467 229.197 46.92 229.357 50.6C229.464 51.6133 229.517 52.8133 229.517 54.2C229.517 55.5333 229.464 56.7333 229.357 57.8C229.197 61.4267 228.317 64.6 226.717 67.32C225.17 70.04 222.904 72.1467 219.917 73.64C216.93 75.08 213.25 75.8 208.877 75.8ZM208.877 67C211.49 67 213.464 66.2 214.797 64.6C216.13 62.9467 216.85 60.5467 216.957 57.4C217.01 56.6 217.037 55.5333 217.037 54.2C217.037 52.8667 217.01 51.8 216.957 51C216.85 47.9067 216.13 45.5333 214.797 43.88C213.464 42.2267 211.49 41.4 208.877 41.4C206.264 41.4 204.264 42.2267 202.877 43.88C201.544 45.5333 200.824 47.9067 200.717 51C200.664 51.8 200.637 52.8667 200.637 54.2C200.637 55.5333 200.664 56.6 200.717 57.4C200.824 60.5467 201.544 62.9467 202.877 64.6C204.264 66.2 206.264 67 208.877 67ZM245.896 75C245.31 75 244.83 74.8133 244.456 74.44C244.083 74.0667 243.896 73.5867 243.896 73V30.12H229.336C228.803 30.12 228.35 29.9333 227.976 29.56C227.603 29.1867 227.416 28.7333 227.416 28.2V21C227.416 20.4133 227.603 19.9333 227.976 19.56C228.35 19.1867 228.803 19 229.336 19H271.256C271.843 19 272.323 19.1867 272.696 19.56C273.07 19.9333 273.256 20.4133 273.256 21V28.2C273.256 28.7333 273.07 29.1867 272.696 29.56C272.323 29.9333 271.843 30.12 271.256 30.12H256.776V73C256.776 73.5867 256.59 74.0667 256.216 74.44C255.843 74.8133 255.363 75 254.776 75H245.896ZM277.226 75C276.692 75 276.239 74.8133 275.866 74.44C275.492 74.0667 275.306 73.5867 275.306 73V35.4C275.306 34.8667 275.492 34.4133 275.866 34.04C276.239 33.6133 276.692 33.4 277.226 33.4H285.066C285.599 33.4 286.052 33.6133 286.426 34.04C286.852 34.4133 287.066 34.8667 287.066 35.4V38.6C288.399 36.9467 290.026 35.6667 291.946 34.76C293.919 33.8533 296.186 33.4 298.746 33.4H302.186C302.719 33.4 303.172 33.5867 303.546 33.96C303.919 34.3333 304.106 34.8133 304.106 35.4V42.28C304.106 42.8667 303.919 43.3467 303.546 43.72C303.172 44.0933 302.719 44.28 302.186 44.28H295.146C292.799 44.28 290.959 44.9467 289.626 46.28C288.292 47.56 287.626 49.4 287.626 51.8V73C287.626 73.5867 287.439 74.0667 287.066 74.44C286.692 74.8133 286.212 75 285.626 75H277.226ZM311.991 75C311.458 75 311.005 74.8133 310.631 74.44C310.258 74.0667 310.071 73.5867 310.071 73V35.4C310.071 34.8133 310.258 34.3333 310.631 33.96C311.005 33.5867 311.458 33.4 311.991 33.4H319.991C320.578 33.4 321.058 33.5867 321.431 33.96C321.805 34.3333 321.991 34.8133 321.991 35.4V73C321.991 73.5867 321.805 74.0667 321.431 74.44C321.058 74.8133 320.578 75 319.991 75H311.991ZM311.751 27C311.218 27 310.765 26.8133 310.391 26.44C310.018 26.0667 309.831 25.5867 309.831 25V18.6C309.831 18.0133 310.018 17.5333 310.391 17.16C310.765 16.7333 311.218 16.52 311.751 16.52H320.151C320.738 16.52 321.218 16.7333 321.591 17.16C322.018 17.5333 322.231 18.0133 322.231 18.6V25C322.231 25.5867 322.018 26.0667 321.591 26.44C321.218 26.8133 320.738 27 320.151 27H311.751ZM336.056 90.2C335.469 90.2 334.989 90.0133 334.616 89.64C334.242 89.2667 334.056 88.7867 334.056 88.2V35.4C334.056 34.8133 334.242 34.3333 334.616 33.96C334.989 33.5867 335.469 33.4 336.056 33.4H343.656C344.242 33.4 344.722 33.5867 345.096 33.96C345.469 34.3333 345.656 34.8133 345.656 35.4V38.44C346.936 36.7333 348.589 35.3467 350.616 34.28C352.642 33.16 355.176 32.6 358.216 32.6C360.989 32.6 363.389 33.0533 365.416 33.96C367.496 34.8133 369.229 36.0667 370.616 37.72C372.056 39.32 373.149 41.2667 373.896 43.56C374.696 45.8533 375.149 48.44 375.256 51.32C375.309 52.3333 375.336 53.2933 375.336 54.2C375.336 55.1067 375.309 56.0933 375.256 57.16C375.202 59.88 374.776 62.3867 373.976 64.68C373.229 66.9733 372.136 68.9467 370.696 70.6C369.256 72.2533 367.496 73.5333 365.416 74.44C363.389 75.3467 360.989 75.8 358.216 75.8C355.496 75.8 353.122 75.32 351.096 74.36C349.122 73.3467 347.496 71.9867 346.216 70.28V88.2C346.216 88.7867 346.029 89.2667 345.656 89.64C345.282 90.0133 344.829 90.2 344.296 90.2H336.056ZM354.616 66.2C356.642 66.2 358.242 65.7733 359.416 64.92C360.589 64.0133 361.416 62.84 361.896 61.4C362.429 59.96 362.749 58.3867 362.856 56.68C362.962 55.0267 362.962 53.3733 362.856 51.72C362.749 50.0133 362.429 48.44 361.896 47C361.416 45.56 360.589 44.4133 359.416 43.56C358.242 42.6533 356.642 42.2 354.616 42.2C352.642 42.2 351.042 42.6533 349.816 43.56C348.589 44.4667 347.709 45.6133 347.176 47C346.642 48.3867 346.322 49.88 346.216 51.48C346.162 52.44 346.136 53.4267 346.136 54.44C346.136 55.4533 346.162 56.4667 346.216 57.48C346.269 58.9733 346.589 60.3867 347.176 61.72C347.816 63 348.722 64.0667 349.896 64.92C351.122 65.7733 352.696 66.2 354.616 66.2Z" fill="white"/>
<path d="M12.04 152C10.44 152 9.09333 151.72 8 151.16C6.90667 150.6 6.09333 149.773 5.56 148.68C5.02667 147.56 4.76 146.173 4.76 144.52V135.44H1.6C1.33333 135.44 1.10667 135.347 0.92 135.16C0.733333 134.973 0.64 134.747 0.64 134.48V132.16C0.64 131.893 0.733333 131.667 0.92 131.48C1.10667 131.293 1.33333 131.2 1.6 131.2H4.76V124.56C4.76 124.293 4.84 124.067 5 123.88C5.18667 123.693 5.42667 123.6 5.72 123.6H8.96C9.22667 123.6 9.45333 123.693 9.64 123.88C9.82667 124.067 9.92 124.293 9.92 124.56V131.2H14.92C15.1867 131.2 15.4133 131.293 15.6 131.48C15.7867 131.667 15.88 131.893 15.88 132.16V134.48C15.88 134.747 15.7867 134.973 15.6 135.16C15.4133 135.347 15.1867 135.44 14.92 135.44H9.92V144.12C9.92 145.213 10.1067 146.067 10.48 146.68C10.88 147.293 11.56 147.6 12.52 147.6H15.28C15.5467 147.6 15.7733 147.693 15.96 147.88C16.1467 148.067 16.24 148.293 16.24 148.56V151.04C16.24 151.307 16.1467 151.533 15.96 151.72C15.7733 151.907 15.5467 152 15.28 152H12.04ZM20.7484 152C20.4818 152 20.2551 151.907 20.0684 151.72C19.8818 151.533 19.7884 151.307 19.7884 151.04V132.2C19.7884 131.907 19.8818 131.667 20.0684 131.48C20.2551 131.293 20.4818 131.2 20.7484 131.2H23.9884C24.2551 131.2 24.4818 131.293 24.6684 131.48C24.8818 131.667 24.9884 131.907 24.9884 132.2V133.84C25.6018 132.987 26.3884 132.333 27.3484 131.88C28.3351 131.427 29.4684 131.2 30.7484 131.2H32.3884C32.6818 131.2 32.9084 131.293 33.0684 131.48C33.2551 131.667 33.3484 131.893 33.3484 132.16V135.04C33.3484 135.307 33.2551 135.533 33.0684 135.72C32.9084 135.907 32.6818 136 32.3884 136H29.2684C27.9884 136 26.9884 136.36 26.2684 137.08C25.5751 137.8 25.2284 138.787 25.2284 140.04V151.04C25.2284 151.307 25.1351 151.533 24.9484 151.72C24.7618 151.907 24.5218 152 24.2284 152H20.7484ZM42.1956 152.4C40.809 152.4 39.5556 152.133 38.4356 151.6C37.3156 151.04 36.4223 150.307 35.7556 149.4C35.1156 148.467 34.7956 147.427 34.7956 146.28C34.7956 144.413 35.5423 142.933 37.0356 141.84C38.5556 140.72 40.5556 139.973 43.0356 139.6L48.5156 138.8V137.96C48.5156 136.84 48.2356 135.973 47.6756 135.36C47.1156 134.747 46.1556 134.44 44.7956 134.44C43.8356 134.44 43.049 134.64 42.4356 135.04C41.849 135.413 41.409 135.92 41.1156 136.56C40.9023 136.907 40.5956 137.08 40.1956 137.08H37.0356C36.7423 137.08 36.5156 137 36.3556 136.84C36.2223 136.68 36.1556 136.467 36.1556 136.2C36.1823 135.773 36.3556 135.253 36.6756 134.64C36.9956 134.027 37.5023 133.44 38.1956 132.88C38.889 132.293 39.7823 131.8 40.8756 131.4C41.969 131 43.289 130.8 44.8356 130.8C46.5156 130.8 47.929 131.013 49.0756 131.44C50.249 131.84 51.1823 132.387 51.8756 133.08C52.569 133.773 53.0756 134.587 53.3956 135.52C53.7156 136.453 53.8756 137.44 53.8756 138.48V151.04C53.8756 151.307 53.7823 151.533 53.5956 151.72C53.409 151.907 53.1823 152 52.9156 152H49.6756C49.3823 152 49.1423 151.907 48.9556 151.72C48.7956 151.533 48.7156 151.307 48.7156 151.04V149.48C48.369 149.987 47.9023 150.467 47.3156 150.92C46.729 151.347 46.009 151.707 45.1556 152C44.329 152.267 43.3423 152.4 42.1956 152.4ZM43.5556 148.6C44.489 148.6 45.329 148.4 46.0756 148C46.849 147.6 47.449 146.987 47.8756 146.16C48.329 145.307 48.5556 144.24 48.5556 142.96V142.12L44.5556 142.76C42.9823 143 41.809 143.387 41.0356 143.92C40.2623 144.453 39.8756 145.107 39.8756 145.88C39.8756 146.467 40.049 146.973 40.3956 147.4C40.769 147.8 41.2356 148.107 41.7956 148.32C42.3556 148.507 42.9423 148.6 43.5556 148.6ZM65.8594 152C65.4327 152 65.1127 151.907 64.8994 151.72C64.7127 151.507 64.5527 151.267 64.4194 151L56.9394 132.44C56.886 132.307 56.8594 132.187 56.8594 132.08C56.8594 131.84 56.9394 131.64 57.0994 131.48C57.286 131.293 57.4994 131.2 57.7394 131.2H60.9794C61.2994 131.2 61.5394 131.293 61.6994 131.48C61.8594 131.64 61.966 131.8 62.0194 131.96L67.3394 146L72.6594 131.96C72.7127 131.8 72.8194 131.64 72.9794 131.48C73.1394 131.293 73.3794 131.2 73.6994 131.2H76.9794C77.1927 131.2 77.3794 131.293 77.5394 131.48C77.726 131.64 77.8194 131.84 77.8194 132.08C77.8194 132.187 77.806 132.307 77.7794 132.44L70.2594 151C70.1527 151.267 69.9927 151.507 69.7794 151.72C69.566 151.907 69.246 152 68.8194 152H65.8594ZM89.6859 152.4C86.7259 152.4 84.3793 151.547 82.6459 149.84C80.9126 148.133 79.9793 145.707 79.8459 142.56C79.8193 142.293 79.8059 141.96 79.8059 141.56C79.8059 141.133 79.8193 140.8 79.8459 140.56C79.9526 138.56 80.4059 136.827 81.2059 135.36C82.0326 133.893 83.1659 132.773 84.6059 132C86.0459 131.2 87.7393 130.8 89.6859 130.8C91.8459 130.8 93.6593 131.253 95.1259 132.16C96.5926 133.04 97.6993 134.28 98.4459 135.88C99.1926 137.453 99.5659 139.28 99.5659 141.36V142.2C99.5659 142.467 99.4726 142.693 99.2859 142.88C99.0993 143.067 98.8593 143.16 98.5659 143.16H85.2859C85.2859 143.16 85.2859 143.2 85.2859 143.28C85.2859 143.36 85.2859 143.427 85.2859 143.48C85.3126 144.413 85.4859 145.28 85.8059 146.08C86.1526 146.853 86.6459 147.48 87.2859 147.96C87.9526 148.44 88.7393 148.68 89.6459 148.68C90.3926 148.68 91.0193 148.573 91.5259 148.36C92.0326 148.12 92.4459 147.853 92.7659 147.56C93.0859 147.267 93.3126 147.027 93.4459 146.84C93.6859 146.52 93.8726 146.333 94.0059 146.28C94.1659 146.2 94.3926 146.16 94.6859 146.16H98.1259C98.3926 146.16 98.6059 146.24 98.7659 146.4C98.9526 146.56 99.0326 146.76 99.0059 147C98.9793 147.427 98.7526 147.947 98.3259 148.56C97.9259 149.173 97.3393 149.773 96.5659 150.36C95.7926 150.947 94.8193 151.44 93.6459 151.84C92.4993 152.213 91.1793 152.4 89.6859 152.4ZM85.2859 139.8H94.1259V139.68C94.1259 138.64 93.9526 137.733 93.6059 136.96C93.2593 136.187 92.7526 135.573 92.0859 135.12C91.4193 134.667 90.6193 134.44 89.6859 134.44C88.7526 134.44 87.9526 134.667 87.2859 135.12C86.6193 135.573 86.1126 136.187 85.7659 136.96C85.4459 137.733 85.2859 138.64 85.2859 139.68V139.8ZM104.812 152C104.545 152 104.319 151.907 104.132 151.72C103.945 151.533 103.852 151.307 103.852 151.04V124.56C103.852 124.293 103.945 124.067 104.132 123.88C104.319 123.693 104.545 123.6 104.812 123.6H108.132C108.399 123.6 108.625 123.693 108.812 123.88C108.999 124.067 109.092 124.293 109.092 124.56V151.04C109.092 151.307 108.999 151.533 108.812 151.72C108.625 151.907 108.399 152 108.132 152H104.812ZM132.538 152.4C130.618 152.4 128.925 152.04 127.458 151.32C126.018 150.6 124.885 149.56 124.058 148.2C123.258 146.813 122.818 145.147 122.738 143.2C122.712 142.8 122.698 142.28 122.698 141.64C122.698 140.973 122.712 140.427 122.738 140C122.818 138.053 123.258 136.4 124.058 135.04C124.885 133.653 126.018 132.6 127.458 131.88C128.925 131.16 130.618 130.8 132.538 130.8C134.245 130.8 135.698 131.04 136.898 131.52C138.098 132 139.085 132.6 139.858 133.32C140.632 134.04 141.205 134.8 141.578 135.6C141.978 136.373 142.192 137.08 142.218 137.72C142.245 138.013 142.152 138.253 141.938 138.44C141.752 138.6 141.525 138.68 141.258 138.68H137.738C137.472 138.68 137.258 138.613 137.098 138.48C136.965 138.347 136.832 138.147 136.698 137.88C136.298 136.813 135.765 136.067 135.098 135.64C134.458 135.187 133.632 134.96 132.618 134.96C131.285 134.96 130.218 135.387 129.418 136.24C128.645 137.067 128.232 138.387 128.178 140.2C128.125 141.213 128.125 142.147 128.178 143C128.232 144.84 128.645 146.173 129.418 147C130.218 147.827 131.285 148.24 132.618 148.24C133.658 148.24 134.498 148.027 135.138 147.6C135.778 147.147 136.298 146.387 136.698 145.32C136.832 145.053 136.965 144.853 137.098 144.72C137.258 144.587 137.472 144.52 137.738 144.52H141.258C141.525 144.52 141.752 144.613 141.938 144.8C142.152 144.96 142.245 145.187 142.218 145.48C142.192 145.96 142.058 146.507 141.818 147.12C141.605 147.707 141.245 148.32 140.738 148.96C140.258 149.573 139.645 150.147 138.898 150.68C138.152 151.187 137.245 151.6 136.178 151.92C135.138 152.24 133.925 152.4 132.538 152.4ZM155.59 152.4C153.457 152.4 151.657 152.027 150.19 151.28C148.75 150.533 147.643 149.48 146.87 148.12C146.123 146.76 145.697 145.173 145.59 143.36C145.563 142.88 145.55 142.293 145.55 141.6C145.55 140.907 145.563 140.32 145.59 139.84C145.697 138 146.137 136.413 146.91 135.08C147.71 133.72 148.83 132.667 150.27 131.92C151.737 131.173 153.51 130.8 155.59 130.8C157.67 130.8 159.43 131.173 160.87 131.92C162.337 132.667 163.457 133.72 164.23 135.08C165.03 136.413 165.483 138 165.59 139.84C165.617 140.32 165.63 140.907 165.63 141.6C165.63 142.293 165.617 142.88 165.59 143.36C165.483 145.173 165.043 146.76 164.27 148.12C163.523 149.48 162.417 150.533 160.95 151.28C159.51 152.027 157.723 152.4 155.59 152.4ZM155.59 148.44C157.003 148.44 158.097 148 158.87 147.12C159.643 146.213 160.07 144.893 160.15 143.16C160.177 142.76 160.19 142.24 160.19 141.6C160.19 140.96 160.177 140.44 160.15 140.04C160.07 138.333 159.643 137.027 158.87 136.12C158.097 135.213 157.003 134.76 155.59 134.76C154.177 134.76 153.083 135.213 152.31 136.12C151.537 137.027 151.11 138.333 151.03 140.04C151.003 140.44 150.99 140.96 150.99 141.6C150.99 142.24 151.003 142.76 151.03 143.16C151.11 144.893 151.537 146.213 152.31 147.12C153.083 148 154.177 148.44 155.59 148.44ZM171.022 152C170.755 152 170.529 151.907 170.342 151.72C170.155 151.533 170.062 151.307 170.062 151.04V132.16C170.062 131.893 170.155 131.667 170.342 131.48C170.529 131.293 170.755 131.2 171.022 131.2H174.142C174.409 131.2 174.635 131.293 174.822 131.48C175.009 131.667 175.102 131.893 175.102 132.16V133.52C175.662 132.773 176.409 132.147 177.342 131.64C178.302 131.107 179.435 130.827 180.742 130.8C183.782 130.747 185.902 131.933 187.102 134.36C187.715 133.293 188.595 132.44 189.742 131.8C190.915 131.133 192.209 130.8 193.622 130.8C195.009 130.8 196.262 131.12 197.382 131.76C198.529 132.4 199.422 133.373 200.062 134.68C200.729 135.96 201.062 137.587 201.062 139.56V151.04C201.062 151.307 200.969 151.533 200.782 151.72C200.595 151.907 200.369 152 200.102 152H196.822C196.555 152 196.329 151.907 196.142 151.72C195.955 151.533 195.862 151.307 195.862 151.04V139.88C195.862 138.68 195.689 137.733 195.342 137.04C194.995 136.32 194.529 135.813 193.942 135.52C193.355 135.227 192.702 135.08 191.982 135.08C191.395 135.08 190.809 135.227 190.222 135.52C189.635 135.813 189.155 136.32 188.782 137.04C188.409 137.733 188.222 138.68 188.222 139.88V151.04C188.222 151.307 188.129 151.533 187.942 151.72C187.755 151.907 187.529 152 187.262 152H183.982C183.689 152 183.449 151.907 183.262 151.72C183.102 151.533 183.022 151.307 183.022 151.04V139.88C183.022 138.68 182.835 137.733 182.462 137.04C182.089 136.32 181.609 135.813 181.022 135.52C180.435 135.227 179.809 135.08 179.142 135.08C178.529 135.08 177.929 135.24 177.342 135.56C176.755 135.853 176.275 136.347 175.902 137.04C175.529 137.733 175.342 138.68 175.342 139.88V151.04C175.342 151.307 175.249 151.533 175.062 151.72C174.875 151.907 174.649 152 174.382 152H171.022ZM209.082 152C208.816 152 208.589 151.907 208.402 151.72C208.216 151.533 208.122 151.307 208.122 151.04V135.44H204.882C204.616 135.44 204.389 135.347 204.202 135.16C204.016 134.973 203.922 134.747 203.922 134.48V132.16C203.922 131.893 204.016 131.667 204.202 131.48C204.389 131.293 204.616 131.2 204.882 131.2H208.122V129.56C208.122 127.96 208.416 126.64 209.002 125.6C209.589 124.533 210.456 123.733 211.602 123.2C212.749 122.667 214.202 122.4 215.962 122.4H218.682C218.976 122.4 219.202 122.493 219.362 122.68C219.549 122.867 219.642 123.093 219.642 123.36V125.68C219.642 125.947 219.549 126.173 219.362 126.36C219.202 126.547 218.976 126.64 218.682 126.64H216.122C215.056 126.64 214.322 126.907 213.922 127.44C213.522 127.973 213.322 128.747 213.322 129.76V131.2H218.282C218.576 131.2 218.802 131.293 218.962 131.48C219.149 131.667 219.242 131.893 219.242 132.16V134.48C219.242 134.747 219.149 134.973 218.962 135.16C218.802 135.347 218.576 135.44 218.282 135.44H213.322V151.04C213.322 151.307 213.229 151.533 213.042 151.72C212.856 151.907 212.629 152 212.362 152H209.082ZM231.332 152.4C229.199 152.4 227.399 152.027 225.932 151.28C224.492 150.533 223.386 149.48 222.612 148.12C221.866 146.76 221.439 145.173 221.332 143.36C221.306 142.88 221.292 142.293 221.292 141.6C221.292 140.907 221.306 140.32 221.332 139.84C221.439 138 221.879 136.413 222.652 135.08C223.452 133.72 224.572 132.667 226.012 131.92C227.479 131.173 229.252 130.8 231.332 130.8C233.412 130.8 235.172 131.173 236.612 131.92C238.079 132.667 239.199 133.72 239.972 135.08C240.772 136.413 241.226 138 241.332 139.84C241.359 140.32 241.372 140.907 241.372 141.6C241.372 142.293 241.359 142.88 241.332 143.36C241.226 145.173 240.786 146.76 240.012 148.12C239.266 149.48 238.159 150.533 236.692 151.28C235.252 152.027 233.466 152.4 231.332 152.4ZM231.332 148.44C232.746 148.44 233.839 148 234.612 147.12C235.386 146.213 235.812 144.893 235.892 143.16C235.919 142.76 235.932 142.24 235.932 141.6C235.932 140.96 235.919 140.44 235.892 140.04C235.812 138.333 235.386 137.027 234.612 136.12C233.839 135.213 232.746 134.76 231.332 134.76C229.919 134.76 228.826 135.213 228.052 136.12C227.279 137.027 226.852 138.333 226.772 140.04C226.746 140.44 226.732 140.96 226.732 141.6C226.732 142.24 226.746 142.76 226.772 143.16C226.852 144.893 227.279 146.213 228.052 147.12C228.826 148 229.919 148.44 231.332 148.44ZM246.764 152C246.497 152 246.271 151.907 246.084 151.72C245.897 151.533 245.804 151.307 245.804 151.04V132.2C245.804 131.907 245.897 131.667 246.084 131.48C246.271 131.293 246.497 131.2 246.764 131.2H250.004C250.271 131.2 250.497 131.293 250.684 131.48C250.897 131.667 251.004 131.907 251.004 132.2V133.84C251.617 132.987 252.404 132.333 253.364 131.88C254.351 131.427 255.484 131.2 256.764 131.2H258.404C258.697 131.2 258.924 131.293 259.084 131.48C259.271 131.667 259.364 131.893 259.364 132.16V135.04C259.364 135.307 259.271 135.533 259.084 135.72C258.924 135.907 258.697 136 258.404 136H255.284C254.004 136 253.004 136.36 252.284 137.08C251.591 137.8 251.244 138.787 251.244 140.04V151.04C251.244 151.307 251.151 151.533 250.964 151.72C250.777 151.907 250.537 152 250.244 152H246.764ZM271.884 152C270.284 152 268.937 151.72 267.844 151.16C266.75 150.6 265.937 149.773 265.404 148.68C264.87 147.56 264.604 146.173 264.604 144.52V135.44H261.444C261.177 135.44 260.95 135.347 260.764 135.16C260.577 134.973 260.484 134.747 260.484 134.48V132.16C260.484 131.893 260.577 131.667 260.764 131.48C260.95 131.293 261.177 131.2 261.444 131.2H264.604V124.56C264.604 124.293 264.684 124.067 264.844 123.88C265.03 123.693 265.27 123.6 265.564 123.6H268.804C269.07 123.6 269.297 123.693 269.484 123.88C269.67 124.067 269.764 124.293 269.764 124.56V131.2H274.764C275.03 131.2 275.257 131.293 275.444 131.48C275.63 131.667 275.724 131.893 275.724 132.16V134.48C275.724 134.747 275.63 134.973 275.444 135.16C275.257 135.347 275.03 135.44 274.764 135.44H269.764V144.12C269.764 145.213 269.95 146.067 270.324 146.68C270.724 147.293 271.404 147.6 272.364 147.6H275.124C275.39 147.6 275.617 147.693 275.804 147.88C275.99 148.067 276.084 148.293 276.084 148.56V151.04C276.084 151.307 275.99 151.533 275.804 151.72C275.617 151.907 275.39 152 275.124 152H271.884ZM285.672 152.4C284.286 152.4 283.032 152.133 281.912 151.6C280.792 151.04 279.899 150.307 279.232 149.4C278.592 148.467 278.272 147.427 278.272 146.28C278.272 144.413 279.019 142.933 280.512 141.84C282.032 140.72 284.032 139.973 286.512 139.6L291.992 138.8V137.96C291.992 136.84 291.712 135.973 291.152 135.36C290.592 134.747 289.632 134.44 288.272 134.44C287.312 134.44 286.526 134.64 285.912 135.04C285.326 135.413 284.886 135.92 284.592 136.56C284.379 136.907 284.072 137.08 283.672 137.08H280.512C280.219 137.08 279.992 137 279.832 136.84C279.699 136.68 279.632 136.467 279.632 136.2C279.659 135.773 279.832 135.253 280.152 134.64C280.472 134.027 280.979 133.44 281.672 132.88C282.366 132.293 283.259 131.8 284.352 131.4C285.446 131 286.766 130.8 288.312 130.8C289.992 130.8 291.406 131.013 292.552 131.44C293.726 131.84 294.659 132.387 295.352 133.08C296.046 133.773 296.552 134.587 296.872 135.52C297.192 136.453 297.352 137.44 297.352 138.48V151.04C297.352 151.307 297.259 151.533 297.072 151.72C296.886 151.907 296.659 152 296.392 152H293.152C292.859 152 292.619 151.907 292.432 151.72C292.272 151.533 292.192 151.307 292.192 151.04V149.48C291.846 149.987 291.379 150.467 290.792 150.92C290.206 151.347 289.486 151.707 288.632 152C287.806 152.267 286.819 152.4 285.672 152.4ZM287.032 148.6C287.966 148.6 288.806 148.4 289.552 148C290.326 147.6 290.926 146.987 291.352 146.16C291.806 145.307 292.032 144.24 292.032 142.96V142.12L288.032 142.76C286.459 143 285.286 143.387 284.512 143.92C283.739 144.453 283.352 145.107 283.352 145.88C283.352 146.467 283.526 146.973 283.872 147.4C284.246 147.8 284.712 148.107 285.272 148.32C285.832 148.507 286.419 148.6 287.032 148.6ZM314.004 152.4C312.457 152.4 311.164 152.133 310.124 151.6C309.11 151.067 308.27 150.387 307.604 149.56V151.04C307.604 151.307 307.51 151.533 307.324 151.72C307.164 151.907 306.937 152 306.644 152H303.484C303.217 152 302.99 151.907 302.804 151.72C302.617 151.533 302.524 151.307 302.524 151.04V124.56C302.524 124.293 302.617 124.067 302.804 123.88C302.99 123.693 303.217 123.6 303.484 123.6H306.884C307.177 123.6 307.404 123.693 307.564 123.88C307.75 124.067 307.844 124.293 307.844 124.56V133.44C308.51 132.667 309.337 132.04 310.324 131.56C311.337 131.053 312.564 130.8 314.004 130.8C315.417 130.8 316.644 131.04 317.684 131.52C318.724 132 319.59 132.68 320.284 133.56C321.004 134.413 321.55 135.413 321.924 136.56C322.297 137.707 322.497 138.947 322.524 140.28C322.55 140.76 322.564 141.2 322.564 141.6C322.564 141.973 322.55 142.4 322.524 142.88C322.47 144.267 322.257 145.547 321.884 146.72C321.51 147.867 320.977 148.867 320.284 149.72C319.59 150.573 318.724 151.24 317.684 151.72C316.644 152.173 315.417 152.4 314.004 152.4ZM312.524 148.12C313.67 148.12 314.564 147.88 315.204 147.4C315.844 146.893 316.297 146.24 316.564 145.44C316.857 144.64 317.03 143.76 317.084 142.8C317.137 142 317.137 141.2 317.084 140.4C317.03 139.44 316.857 138.56 316.564 137.76C316.297 136.96 315.844 136.32 315.204 135.84C314.564 135.333 313.67 135.08 312.524 135.08C311.457 135.08 310.59 135.32 309.924 135.8C309.257 136.28 308.75 136.893 308.404 137.64C308.057 138.36 307.87 139.12 307.844 139.92C307.817 140.4 307.804 140.92 307.804 141.48C307.804 142.013 307.817 142.52 307.844 143C307.897 143.827 308.07 144.64 308.364 145.44C308.684 146.213 309.177 146.853 309.844 147.36C310.537 147.867 311.43 148.12 312.524 148.12ZM328.015 152C327.748 152 327.522 151.907 327.335 151.72C327.148 151.533 327.055 151.307 327.055 151.04V124.56C327.055 124.293 327.148 124.067 327.335 123.88C327.522 123.693 327.748 123.6 328.015 123.6H331.335C331.602 123.6 331.828 123.693 332.015 123.88C332.202 124.067 332.295 124.293 332.295 124.56V151.04C332.295 151.307 332.202 151.533 332.015 151.72C331.828 151.907 331.602 152 331.335 152H328.015ZM341.361 159.6C341.148 159.6 340.961 159.52 340.801 159.36C340.641 159.2 340.561 159.013 340.561 158.8C340.561 158.693 340.561 158.587 340.561 158.48C340.588 158.4 340.641 158.293 340.721 158.16L343.841 150.76L336.161 132.64C336.054 132.373 336.001 132.187 336.001 132.08C336.028 131.84 336.121 131.64 336.281 131.48C336.441 131.293 336.641 131.2 336.881 131.2H340.121C340.441 131.2 340.681 131.28 340.841 131.44C341.001 131.6 341.121 131.773 341.201 131.96L346.521 145.04L352.001 131.96C352.081 131.747 352.201 131.573 352.361 131.44C352.521 131.28 352.761 131.2 353.081 131.2H356.281C356.494 131.2 356.681 131.28 356.841 131.44C357.028 131.6 357.121 131.787 357.121 132C357.121 132.16 357.068 132.373 356.961 132.64L345.641 158.84C345.534 159.053 345.401 159.227 345.241 159.36C345.081 159.52 344.841 159.6 344.521 159.6H341.361ZM373.437 152C373.064 152 372.784 151.907 372.597 151.72C372.411 151.533 372.251 151.293 372.117 151L366.397 132.44C366.371 132.307 366.357 132.187 366.357 132.08C366.357 131.84 366.437 131.64 366.597 131.48C366.784 131.293 366.984 131.2 367.197 131.2H370.157C370.477 131.2 370.731 131.293 370.917 131.48C371.104 131.64 371.211 131.8 371.237 131.96L375.157 145.2L379.317 132.08C379.371 131.893 379.491 131.707 379.677 131.52C379.864 131.307 380.144 131.2 380.517 131.2H382.517C382.891 131.2 383.171 131.307 383.357 131.52C383.544 131.707 383.664 131.893 383.717 132.08L387.877 145.2L391.797 131.96C391.824 131.8 391.917 131.64 392.077 131.48C392.264 131.293 392.517 131.2 392.837 131.2H395.797C396.037 131.2 396.237 131.293 396.397 131.48C396.584 131.64 396.677 131.84 396.677 132.08C396.677 132.187 396.651 132.307 396.597 132.44L390.877 151C390.797 151.293 390.651 151.533 390.437 151.72C390.251 151.907 389.971 152 389.597 152H386.997C386.624 152 386.331 151.907 386.117 151.72C385.904 151.533 385.757 151.293 385.677 151L381.517 138.36L377.357 151C377.251 151.293 377.091 151.533 376.877 151.72C376.691 151.907 376.397 152 375.997 152H373.437ZM401.53 152C401.263 152 401.036 151.907 400.85 151.72C400.663 151.533 400.57 151.307 400.57 151.04V132.16C400.57 131.893 400.663 131.667 400.85 131.48C401.036 131.293 401.263 131.2 401.53 131.2H404.85C405.143 131.2 405.37 131.293 405.53 131.48C405.716 131.667 405.81 131.893 405.81 132.16V151.04C405.81 151.307 405.716 151.533 405.53 151.72C405.37 151.907 405.143 152 404.85 152H401.53ZM401.37 127.76C401.076 127.76 400.836 127.68 400.65 127.52C400.49 127.333 400.41 127.093 400.41 126.8V123.92C400.41 123.653 400.49 123.427 400.65 123.24C400.836 123.053 401.076 122.96 401.37 122.96H405.01C405.303 122.96 405.543 123.053 405.73 123.24C405.916 123.427 406.01 123.653 406.01 123.92V126.8C406.01 127.093 405.916 127.333 405.73 127.52C405.543 127.68 405.303 127.76 405.01 127.76H401.37ZM420.517 152C418.917 152 417.57 151.72 416.477 151.16C415.383 150.6 414.57 149.773 414.037 148.68C413.503 147.56 413.237 146.173 413.237 144.52V135.44H410.077C409.81 135.44 409.583 135.347 409.397 135.16C409.21 134.973 409.117 134.747 409.117 134.48V132.16C409.117 131.893 409.21 131.667 409.397 131.48C409.583 131.293 409.81 131.2 410.077 131.2H413.237V124.56C413.237 124.293 413.317 124.067 413.477 123.88C413.663 123.693 413.903 123.6 414.197 123.6H417.437C417.703 123.6 417.93 123.693 418.117 123.88C418.303 124.067 418.397 124.293 418.397 124.56V131.2H423.397C423.663 131.2 423.89 131.293 424.077 131.48C424.263 131.667 424.357 131.893 424.357 132.16V134.48C424.357 134.747 424.263 134.973 424.077 135.16C423.89 135.347 423.663 135.44 423.397 135.44H418.397V144.12C418.397 145.213 418.583 146.067 418.957 146.68C419.357 147.293 420.037 147.6 420.997 147.6H423.757C424.023 147.6 424.25 147.693 424.437 147.88C424.623 148.067 424.717 148.293 424.717 148.56V151.04C424.717 151.307 424.623 151.533 424.437 151.72C424.25 151.907 424.023 152 423.757 152H420.517ZM429.265 152C428.998 152 428.772 151.907 428.585 151.72C428.398 151.533 428.305 151.307 428.305 151.04V124.56C428.305 124.293 428.398 124.067 428.585 123.88C428.772 123.693 428.998 123.6 429.265 123.6H432.825C433.118 123.6 433.345 123.693 433.505 123.88C433.692 124.067 433.785 124.293 433.785 124.56V133.68C434.505 132.827 435.385 132.133 436.425 131.6C437.465 131.067 438.745 130.8 440.265 130.8C441.892 130.8 443.305 131.173 444.505 131.92C445.732 132.64 446.678 133.667 447.345 135C448.012 136.333 448.345 137.933 448.345 139.8V151.04C448.345 151.307 448.252 151.533 448.065 151.72C447.878 151.907 447.652 152 447.385 152H443.785C443.518 152 443.292 151.907 443.105 151.72C442.918 151.533 442.825 151.307 442.825 151.04V140.04C442.825 138.493 442.438 137.28 441.665 136.4C440.918 135.52 439.825 135.08 438.385 135.08C436.998 135.08 435.878 135.52 435.025 136.4C434.198 137.28 433.785 138.493 433.785 140.04V151.04C433.785 151.307 433.692 151.533 433.505 151.72C433.345 151.907 433.118 152 432.825 152H429.265ZM470.282 152.4C468.655 152.4 467.242 152.04 466.042 151.32C464.869 150.573 463.962 149.533 463.322 148.2C462.682 146.84 462.362 145.24 462.362 143.4V132.16C462.362 131.893 462.455 131.667 462.642 131.48C462.829 131.293 463.055 131.2 463.322 131.2H466.842C467.135 131.2 467.362 131.293 467.522 131.48C467.709 131.667 467.802 131.893 467.802 132.16V143.16C467.802 146.467 469.255 148.12 472.162 148.12C473.549 148.12 474.642 147.68 475.442 146.8C476.269 145.92 476.682 144.707 476.682 143.16V132.16C476.682 131.893 476.775 131.667 476.962 131.48C477.149 131.293 477.375 131.2 477.642 131.2H481.162C481.429 131.2 481.655 131.293 481.842 131.48C482.029 131.667 482.122 131.893 482.122 132.16V151.04C482.122 151.307 482.029 151.533 481.842 151.72C481.655 151.907 481.429 152 481.162 152H477.922C477.629 152 477.389 151.907 477.202 151.72C477.042 151.533 476.962 151.307 476.962 151.04V149.4C476.242 150.333 475.349 151.067 474.282 151.6C473.215 152.133 471.882 152.4 470.282 152.4ZM495.286 152.4C493.686 152.4 492.312 152.213 491.166 151.84C490.046 151.467 489.126 151 488.406 150.44C487.686 149.88 487.152 149.32 486.806 148.76C486.459 148.2 486.272 147.733 486.246 147.36C486.219 147.067 486.299 146.84 486.486 146.68C486.699 146.493 486.926 146.4 487.166 146.4H490.326C490.432 146.4 490.526 146.413 490.606 146.44C490.686 146.467 490.792 146.547 490.926 146.68C491.272 146.973 491.632 147.28 492.006 147.6C492.406 147.92 492.872 148.2 493.406 148.44C493.939 148.653 494.606 148.76 495.406 148.76C496.446 148.76 497.312 148.56 498.006 148.16C498.726 147.733 499.086 147.133 499.086 146.36C499.086 145.8 498.926 145.347 498.606 145C498.312 144.653 497.752 144.347 496.926 144.08C496.099 143.787 494.926 143.48 493.406 143.16C491.912 142.813 490.672 142.373 489.686 141.84C488.699 141.307 487.966 140.64 487.486 139.84C487.006 139.04 486.766 138.107 486.766 137.04C486.766 136 487.072 135.013 487.686 134.08C488.326 133.12 489.259 132.333 490.486 131.72C491.739 131.107 493.286 130.8 495.126 130.8C496.566 130.8 497.819 130.987 498.886 131.36C499.952 131.707 500.832 132.147 501.526 132.68C502.246 133.213 502.792 133.76 503.166 134.32C503.539 134.853 503.739 135.32 503.766 135.72C503.792 136.013 503.712 136.253 503.526 136.44C503.339 136.6 503.126 136.68 502.886 136.68H499.926C499.792 136.68 499.672 136.653 499.566 136.6C499.459 136.547 499.352 136.48 499.246 136.4C498.952 136.133 498.632 135.853 498.286 135.56C497.939 135.267 497.512 135.013 497.006 134.8C496.526 134.56 495.886 134.44 495.086 134.44C494.072 134.44 493.299 134.667 492.766 135.12C492.232 135.547 491.966 136.093 491.966 136.76C491.966 137.213 492.086 137.613 492.326 137.96C492.592 138.28 493.112 138.587 493.886 138.88C494.659 139.173 495.832 139.48 497.406 139.8C499.192 140.12 500.606 140.6 501.646 141.24C502.712 141.853 503.459 142.573 503.886 143.4C504.339 144.2 504.566 145.093 504.566 146.08C504.566 147.28 504.206 148.36 503.486 149.32C502.792 150.28 501.752 151.04 500.366 151.6C499.006 152.133 497.312 152.4 495.286 152.4Z" fill="white"/>
</svg>
