<svg width="505" height="38" viewBox="0 0 505 38" fill="none" xmlns="http://www.w3.org/2000/svg">
<path d="M12.04 30C10.44 30 9.09333 29.72 8 29.16C6.90667 28.6 6.09333 27.7733 5.56 26.68C5.02667 25.56 4.76 24.1733 4.76 22.52V13.44H1.6C1.33333 13.44 1.10667 13.3467 0.92 13.16C0.733333 12.9733 0.64 12.7467 0.64 12.48V10.16C0.64 9.89333 0.733333 9.66667 0.92 9.48C1.10667 9.29333 1.33333 9.2 1.6 9.2H4.76V2.56C4.76 2.29333 4.84 2.06667 5 1.88C5.18667 1.69333 5.42667 1.6 5.72 1.6H8.96C9.22667 1.6 9.45333 1.69333 9.64 1.88C9.82667 2.06667 9.92 2.29333 9.92 2.56V9.2H14.92C15.1867 9.2 15.4133 9.29333 15.6 9.48C15.7867 9.66667 15.88 9.89333 15.88 10.16V12.48C15.88 12.7467 15.7867 12.9733 15.6 13.16C15.4133 13.3467 15.1867 13.44 14.92 13.44H9.92V22.12C9.92 23.2133 10.1067 24.0667 10.48 24.68C10.88 25.2933 11.56 25.6 12.52 25.6H15.28C15.5467 25.6 15.7733 25.6933 15.96 25.88C16.1467 26.0667 16.24 26.2933 16.24 26.56V29.04C16.24 29.3067 16.1467 29.5333 15.96 29.72C15.7733 29.9067 15.5467 30 15.28 30H12.04ZM20.7484 30C20.4818 30 20.2551 29.9067 20.0684 29.72C19.8818 29.5333 19.7884 29.3067 19.7884 29.04V10.2C19.7884 9.90667 19.8818 9.66667 20.0684 9.48C20.2551 9.29333 20.4818 9.2 20.7484 9.2H23.9884C24.2551 9.2 24.4818 9.29333 24.6684 9.48C24.8818 9.66667 24.9884 9.90667 24.9884 10.2V11.84C25.6018 10.9867 26.3884 10.3333 27.3484 9.88C28.3351 9.42667 29.4684 9.2 30.7484 9.2H32.3884C32.6818 9.2 32.9084 9.29333 33.0684 9.48C33.2551 9.66667 33.3484 9.89333 33.3484 10.16V13.04C33.3484 13.3067 33.2551 13.5333 33.0684 13.72C32.9084 13.9067 32.6818 14 32.3884 14H29.2684C27.9884 14 26.9884 14.36 26.2684 15.08C25.5751 15.8 25.2284 16.7867 25.2284 18.04V29.04C25.2284 29.3067 25.1351 29.5333 24.9484 29.72C24.7618 29.9067 24.5218 30 24.2284 30H20.7484ZM42.1956 30.4C40.809 30.4 39.5556 30.1333 38.4356 29.6C37.3156 29.04 36.4223 28.3067 35.7556 27.4C35.1156 26.4667 34.7956 25.4267 34.7956 24.28C34.7956 22.4133 35.5423 20.9333 37.0356 19.84C38.5556 18.72 40.5556 17.9733 43.0356 17.6L48.5156 16.8V15.96C48.5156 14.84 48.2356 13.9733 47.6756 13.36C47.1156 12.7467 46.1556 12.44 44.7956 12.44C43.8356 12.44 43.049 12.64 42.4356 13.04C41.849 13.4133 41.409 13.92 41.1156 14.56C40.9023 14.9067 40.5956 15.08 40.1956 15.08H37.0356C36.7423 15.08 36.5156 15 36.3556 14.84C36.2223 14.68 36.1556 14.4667 36.1556 14.2C36.1823 13.7733 36.3556 13.2533 36.6756 12.64C36.9956 12.0267 37.5023 11.44 38.1956 10.88C38.889 10.2933 39.7823 9.8 40.8756 9.4C41.969 9 43.289 8.8 44.8356 8.8C46.5156 8.8 47.929 9.01333 49.0756 9.44C50.249 9.84 51.1823 10.3867 51.8756 11.08C52.569 11.7733 53.0756 12.5867 53.3956 13.52C53.7156 14.4533 53.8756 15.44 53.8756 16.48V29.04C53.8756 29.3067 53.7823 29.5333 53.5956 29.72C53.409 29.9067 53.1823 30 52.9156 30H49.6756C49.3823 30 49.1423 29.9067 48.9556 29.72C48.7956 29.5333 48.7156 29.3067 48.7156 29.04V27.48C48.369 27.9867 47.9023 28.4667 47.3156 28.92C46.729 29.3467 46.009 29.7067 45.1556 30C44.329 30.2667 43.3423 30.4 42.1956 30.4ZM43.5556 26.6C44.489 26.6 45.329 26.4 46.0756 26C46.849 25.6 47.449 24.9867 47.8756 24.16C48.329 23.3067 48.5556 22.24 48.5556 20.96V20.12L44.5556 20.76C42.9823 21 41.809 21.3867 41.0356 21.92C40.2623 22.4533 39.8756 23.1067 39.8756 23.88C39.8756 24.4667 40.049 24.9733 40.3956 25.4C40.769 25.8 41.2356 26.1067 41.7956 26.32C42.3556 26.5067 42.9423 26.6 43.5556 26.6ZM65.8594 30C65.4327 30 65.1127 29.9067 64.8994 29.72C64.7127 29.5067 64.5527 29.2667 64.4194 29L56.9394 10.44C56.886 10.3067 56.8594 10.1867 56.8594 10.08C56.8594 9.84 56.9394 9.64 57.0994 9.48C57.286 9.29333 57.4994 9.2 57.7394 9.2H60.9794C61.2994 9.2 61.5394 9.29333 61.6994 9.48C61.8594 9.64 61.966 9.8 62.0194 9.96L67.3394 24L72.6594 9.96C72.7127 9.8 72.8194 9.64 72.9794 9.48C73.1394 9.29333 73.3794 9.2 73.6994 9.2H76.9794C77.1927 9.2 77.3794 9.29333 77.5394 9.48C77.726 9.64 77.8194 9.84 77.8194 10.08C77.8194 10.1867 77.806 10.3067 77.7794 10.44L70.2594 29C70.1527 29.2667 69.9927 29.5067 69.7794 29.72C69.566 29.9067 69.246 30 68.8194 30H65.8594ZM89.6859 30.4C86.7259 30.4 84.3793 29.5467 82.6459 27.84C80.9126 26.1333 79.9793 23.7067 79.8459 20.56C79.8193 20.2933 79.8059 19.96 79.8059 19.56C79.8059 19.1333 79.8193 18.8 79.8459 18.56C79.9526 16.56 80.4059 14.8267 81.2059 13.36C82.0326 11.8933 83.1659 10.7733 84.6059 10C86.0459 9.2 87.7393 8.8 89.6859 8.8C91.8459 8.8 93.6593 9.25333 95.1259 10.16C96.5926 11.04 97.6993 12.28 98.4459 13.88C99.1926 15.4533 99.5659 17.28 99.5659 19.36V20.2C99.5659 20.4667 99.4726 20.6933 99.2859 20.88C99.0993 21.0667 98.8593 21.16 98.5659 21.16H85.2859C85.2859 21.16 85.2859 21.2 85.2859 21.28C85.2859 21.36 85.2859 21.4267 85.2859 21.48C85.3126 22.4133 85.4859 23.28 85.8059 24.08C86.1526 24.8533 86.6459 25.48 87.2859 25.96C87.9526 26.44 88.7393 26.68 89.6459 26.68C90.3926 26.68 91.0193 26.5733 91.5259 26.36C92.0326 26.12 92.4459 25.8533 92.7659 25.56C93.0859 25.2667 93.3126 25.0267 93.4459 24.84C93.6859 24.52 93.8726 24.3333 94.0059 24.28C94.1659 24.2 94.3926 24.16 94.6859 24.16H98.1259C98.3926 24.16 98.6059 24.24 98.7659 24.4C98.9526 24.56 99.0326 24.76 99.0059 25C98.9793 25.4267 98.7526 25.9467 98.3259 26.56C97.9259 27.1733 97.3393 27.7733 96.5659 28.36C95.7926 28.9467 94.8193 29.44 93.6459 29.84C92.4993 30.2133 91.1793 30.4 89.6859 30.4ZM85.2859 17.8H94.1259V17.68C94.1259 16.64 93.9526 15.7333 93.6059 14.96C93.2593 14.1867 92.7526 13.5733 92.0859 13.12C91.4193 12.6667 90.6193 12.44 89.6859 12.44C88.7526 12.44 87.9526 12.6667 87.2859 13.12C86.6193 13.5733 86.1126 14.1867 85.7659 14.96C85.4459 15.7333 85.2859 16.64 85.2859 17.68V17.8ZM104.812 30C104.545 30 104.319 29.9067 104.132 29.72C103.945 29.5333 103.852 29.3067 103.852 29.04V2.56C103.852 2.29333 103.945 2.06667 104.132 1.88C104.319 1.69333 104.545 1.6 104.812 1.6H108.132C108.399 1.6 108.625 1.69333 108.812 1.88C108.999 2.06667 109.092 2.29333 109.092 2.56V29.04C109.092 29.3067 108.999 29.5333 108.812 29.72C108.625 29.9067 108.399 30 108.132 30H104.812ZM132.538 30.4C130.618 30.4 128.925 30.04 127.458 29.32C126.018 28.6 124.885 27.56 124.058 26.2C123.258 24.8133 122.818 23.1467 122.738 21.2C122.712 20.8 122.698 20.28 122.698 19.64C122.698 18.9733 122.712 18.4267 122.738 18C122.818 16.0533 123.258 14.4 124.058 13.04C124.885 11.6533 126.018 10.6 127.458 9.88C128.925 9.16 130.618 8.8 132.538 8.8C134.245 8.8 135.698 9.04 136.898 9.52C138.098 10 139.085 10.6 139.858 11.32C140.632 12.04 141.205 12.8 141.578 13.6C141.978 14.3733 142.192 15.08 142.218 15.72C142.245 16.0133 142.152 16.2533 141.938 16.44C141.752 16.6 141.525 16.68 141.258 16.68H137.738C137.472 16.68 137.258 16.6133 137.098 16.48C136.965 16.3467 136.832 16.1467 136.698 15.88C136.298 14.8133 135.765 14.0667 135.098 13.64C134.458 13.1867 133.632 12.96 132.618 12.96C131.285 12.96 130.218 13.3867 129.418 14.24C128.645 15.0667 128.232 16.3867 128.178 18.2C128.125 19.2133 128.125 20.1467 128.178 21C128.232 22.84 128.645 24.1733 129.418 25C130.218 25.8267 131.285 26.24 132.618 26.24C133.658 26.24 134.498 26.0267 135.138 25.6C135.778 25.1467 136.298 24.3867 136.698 23.32C136.832 23.0533 136.965 22.8533 137.098 22.72C137.258 22.5867 137.472 22.52 137.738 22.52H141.258C141.525 22.52 141.752 22.6133 141.938 22.8C142.152 22.96 142.245 23.1867 142.218 23.48C142.192 23.96 142.058 24.5067 141.818 25.12C141.605 25.7067 141.245 26.32 140.738 26.96C140.258 27.5733 139.645 28.1467 138.898 28.68C138.152 29.1867 137.245 29.6 136.178 29.92C135.138 30.24 133.925 30.4 132.538 30.4ZM155.59 30.4C153.457 30.4 151.657 30.0267 150.19 29.28C148.75 28.5333 147.643 27.48 146.87 26.12C146.123 24.76 145.697 23.1733 145.59 21.36C145.563 20.88 145.55 20.2933 145.55 19.6C145.55 18.9067 145.563 18.32 145.59 17.84C145.697 16 146.137 14.4133 146.91 13.08C147.71 11.72 148.83 10.6667 150.27 9.92C151.737 9.17333 153.51 8.8 155.59 8.8C157.67 8.8 159.43 9.17333 160.87 9.92C162.337 10.6667 163.457 11.72 164.23 13.08C165.03 14.4133 165.483 16 165.59 17.84C165.617 18.32 165.63 18.9067 165.63 19.6C165.63 20.2933 165.617 20.88 165.59 21.36C165.483 23.1733 165.043 24.76 164.27 26.12C163.523 27.48 162.417 28.5333 160.95 29.28C159.51 30.0267 157.723 30.4 155.59 30.4ZM155.59 26.44C157.003 26.44 158.097 26 158.87 25.12C159.643 24.2133 160.07 22.8933 160.15 21.16C160.177 20.76 160.19 20.24 160.19 19.6C160.19 18.96 160.177 18.44 160.15 18.04C160.07 16.3333 159.643 15.0267 158.87 14.12C158.097 13.2133 157.003 12.76 155.59 12.76C154.177 12.76 153.083 13.2133 152.31 14.12C151.537 15.0267 151.11 16.3333 151.03 18.04C151.003 18.44 150.99 18.96 150.99 19.6C150.99 20.24 151.003 20.76 151.03 21.16C151.11 22.8933 151.537 24.2133 152.31 25.12C153.083 26 154.177 26.44 155.59 26.44ZM171.022 30C170.755 30 170.529 29.9067 170.342 29.72C170.155 29.5333 170.062 29.3067 170.062 29.04V10.16C170.062 9.89333 170.155 9.66667 170.342 9.48C170.529 9.29333 170.755 9.2 171.022 9.2H174.142C174.409 9.2 174.635 9.29333 174.822 9.48C175.009 9.66667 175.102 9.89333 175.102 10.16V11.52C175.662 10.7733 176.409 10.1467 177.342 9.64C178.302 9.10667 179.435 8.82667 180.742 8.8C183.782 8.74667 185.902 9.93333 187.102 12.36C187.715 11.2933 188.595 10.44 189.742 9.8C190.915 9.13333 192.209 8.8 193.622 8.8C195.009 8.8 196.262 9.12 197.382 9.76C198.529 10.4 199.422 11.3733 200.062 12.68C200.729 13.96 201.062 15.5867 201.062 17.56V29.04C201.062 29.3067 200.969 29.5333 200.782 29.72C200.595 29.9067 200.369 30 200.102 30H196.822C196.555 30 196.329 29.9067 196.142 29.72C195.955 29.5333 195.862 29.3067 195.862 29.04V17.88C195.862 16.68 195.689 15.7333 195.342 15.04C194.995 14.32 194.529 13.8133 193.942 13.52C193.355 13.2267 192.702 13.08 191.982 13.08C191.395 13.08 190.809 13.2267 190.222 13.52C189.635 13.8133 189.155 14.32 188.782 15.04C188.409 15.7333 188.222 16.68 188.222 17.88V29.04C188.222 29.3067 188.129 29.5333 187.942 29.72C187.755 29.9067 187.529 30 187.262 30H183.982C183.689 30 183.449 29.9067 183.262 29.72C183.102 29.5333 183.022 29.3067 183.022 29.04V17.88C183.022 16.68 182.835 15.7333 182.462 15.04C182.089 14.32 181.609 13.8133 181.022 13.52C180.435 13.2267 179.809 13.08 179.142 13.08C178.529 13.08 177.929 13.24 177.342 13.56C176.755 13.8533 176.275 14.3467 175.902 15.04C175.529 15.7333 175.342 16.68 175.342 17.88V29.04C175.342 29.3067 175.249 29.5333 175.062 29.72C174.875 29.9067 174.649 30 174.382 30H171.022ZM209.082 30C208.816 30 208.589 29.9067 208.402 29.72C208.216 29.5333 208.122 29.3067 208.122 29.04V13.44H204.882C204.616 13.44 204.389 13.3467 204.202 13.16C204.016 12.9733 203.922 12.7467 203.922 12.48V10.16C203.922 9.89333 204.016 9.66667 204.202 9.48C204.389 9.29333 204.616 9.2 204.882 9.2H208.122V7.56C208.122 5.96 208.416 4.64 209.002 3.6C209.589 2.53333 210.456 1.73333 211.602 1.2C212.749 0.666666 214.202 0.4 215.962 0.4H218.682C218.976 0.4 219.202 0.493333 219.362 0.679998C219.549 0.866666 219.642 1.09333 219.642 1.36V3.68C219.642 3.94667 219.549 4.17333 219.362 4.36C219.202 4.54667 218.976 4.64 218.682 4.64H216.122C215.056 4.64 214.322 4.90667 213.922 5.44C213.522 5.97333 213.322 6.74666 213.322 7.76V9.2H218.282C218.576 9.2 218.802 9.29333 218.962 9.48C219.149 9.66667 219.242 9.89333 219.242 10.16V12.48C219.242 12.7467 219.149 12.9733 218.962 13.16C218.802 13.3467 218.576 13.44 218.282 13.44H213.322V29.04C213.322 29.3067 213.229 29.5333 213.042 29.72C212.856 29.9067 212.629 30 212.362 30H209.082ZM231.332 30.4C229.199 30.4 227.399 30.0267 225.932 29.28C224.492 28.5333 223.386 27.48 222.612 26.12C221.866 24.76 221.439 23.1733 221.332 21.36C221.306 20.88 221.292 20.2933 221.292 19.6C221.292 18.9067 221.306 18.32 221.332 17.84C221.439 16 221.879 14.4133 222.652 13.08C223.452 11.72 224.572 10.6667 226.012 9.92C227.479 9.17333 229.252 8.8 231.332 8.8C233.412 8.8 235.172 9.17333 236.612 9.92C238.079 10.6667 239.199 11.72 239.972 13.08C240.772 14.4133 241.226 16 241.332 17.84C241.359 18.32 241.372 18.9067 241.372 19.6C241.372 20.2933 241.359 20.88 241.332 21.36C241.226 23.1733 240.786 24.76 240.012 26.12C239.266 27.48 238.159 28.5333 236.692 29.28C235.252 30.0267 233.466 30.4 231.332 30.4ZM231.332 26.44C232.746 26.44 233.839 26 234.612 25.12C235.386 24.2133 235.812 22.8933 235.892 21.16C235.919 20.76 235.932 20.24 235.932 19.6C235.932 18.96 235.919 18.44 235.892 18.04C235.812 16.3333 235.386 15.0267 234.612 14.12C233.839 13.2133 232.746 12.76 231.332 12.76C229.919 12.76 228.826 13.2133 228.052 14.12C227.279 15.0267 226.852 16.3333 226.772 18.04C226.746 18.44 226.732 18.96 226.732 19.6C226.732 20.24 226.746 20.76 226.772 21.16C226.852 22.8933 227.279 24.2133 228.052 25.12C228.826 26 229.919 26.44 231.332 26.44ZM246.764 30C246.497 30 246.271 29.9067 246.084 29.72C245.897 29.5333 245.804 29.3067 245.804 29.04V10.2C245.804 9.90667 245.897 9.66667 246.084 9.48C246.271 9.29333 246.497 9.2 246.764 9.2H250.004C250.271 9.2 250.497 9.29333 250.684 9.48C250.897 9.66667 251.004 9.90667 251.004 10.2V11.84C251.617 10.9867 252.404 10.3333 253.364 9.88C254.351 9.42667 255.484 9.2 256.764 9.2H258.404C258.697 9.2 258.924 9.29333 259.084 9.48C259.271 9.66667 259.364 9.89333 259.364 10.16V13.04C259.364 13.3067 259.271 13.5333 259.084 13.72C258.924 13.9067 258.697 14 258.404 14H255.284C254.004 14 253.004 14.36 252.284 15.08C251.591 15.8 251.244 16.7867 251.244 18.04V29.04C251.244 29.3067 251.151 29.5333 250.964 29.72C250.777 29.9067 250.537 30 250.244 30H246.764ZM271.884 30C270.284 30 268.937 29.72 267.844 29.16C266.75 28.6 265.937 27.7733 265.404 26.68C264.87 25.56 264.604 24.1733 264.604 22.52V13.44H261.444C261.177 13.44 260.95 13.3467 260.764 13.16C260.577 12.9733 260.484 12.7467 260.484 12.48V10.16C260.484 9.89333 260.577 9.66667 260.764 9.48C260.95 9.29333 261.177 9.2 261.444 9.2H264.604V2.56C264.604 2.29333 264.684 2.06667 264.844 1.88C265.03 1.69333 265.27 1.6 265.564 1.6H268.804C269.07 1.6 269.297 1.69333 269.484 1.88C269.67 2.06667 269.764 2.29333 269.764 2.56V9.2H274.764C275.03 9.2 275.257 9.29333 275.444 9.48C275.63 9.66667 275.724 9.89333 275.724 10.16V12.48C275.724 12.7467 275.63 12.9733 275.444 13.16C275.257 13.3467 275.03 13.44 274.764 13.44H269.764V22.12C269.764 23.2133 269.95 24.0667 270.324 24.68C270.724 25.2933 271.404 25.6 272.364 25.6H275.124C275.39 25.6 275.617 25.6933 275.804 25.88C275.99 26.0667 276.084 26.2933 276.084 26.56V29.04C276.084 29.3067 275.99 29.5333 275.804 29.72C275.617 29.9067 275.39 30 275.124 30H271.884ZM285.672 30.4C284.286 30.4 283.032 30.1333 281.912 29.6C280.792 29.04 279.899 28.3067 279.232 27.4C278.592 26.4667 278.272 25.4267 278.272 24.28C278.272 22.4133 279.019 20.9333 280.512 19.84C282.032 18.72 284.032 17.9733 286.512 17.6L291.992 16.8V15.96C291.992 14.84 291.712 13.9733 291.152 13.36C290.592 12.7467 289.632 12.44 288.272 12.44C287.312 12.44 286.526 12.64 285.912 13.04C285.326 13.4133 284.886 13.92 284.592 14.56C284.379 14.9067 284.072 15.08 283.672 15.08H280.512C280.219 15.08 279.992 15 279.832 14.84C279.699 14.68 279.632 14.4667 279.632 14.2C279.659 13.7733 279.832 13.2533 280.152 12.64C280.472 12.0267 280.979 11.44 281.672 10.88C282.366 10.2933 283.259 9.8 284.352 9.4C285.446 9 286.766 8.8 288.312 8.8C289.992 8.8 291.406 9.01333 292.552 9.44C293.726 9.84 294.659 10.3867 295.352 11.08C296.046 11.7733 296.552 12.5867 296.872 13.52C297.192 14.4533 297.352 15.44 297.352 16.48V29.04C297.352 29.3067 297.259 29.5333 297.072 29.72C296.886 29.9067 296.659 30 296.392 30H293.152C292.859 30 292.619 29.9067 292.432 29.72C292.272 29.5333 292.192 29.3067 292.192 29.04V27.48C291.846 27.9867 291.379 28.4667 290.792 28.92C290.206 29.3467 289.486 29.7067 288.632 30C287.806 30.2667 286.819 30.4 285.672 30.4ZM287.032 26.6C287.966 26.6 288.806 26.4 289.552 26C290.326 25.6 290.926 24.9867 291.352 24.16C291.806 23.3067 292.032 22.24 292.032 20.96V20.12L288.032 20.76C286.459 21 285.286 21.3867 284.512 21.92C283.739 22.4533 283.352 23.1067 283.352 23.88C283.352 24.4667 283.526 24.9733 283.872 25.4C284.246 25.8 284.712 26.1067 285.272 26.32C285.832 26.5067 286.419 26.6 287.032 26.6ZM314.004 30.4C312.457 30.4 311.164 30.1333 310.124 29.6C309.11 29.0667 308.27 28.3867 307.604 27.56V29.04C307.604 29.3067 307.51 29.5333 307.324 29.72C307.164 29.9067 306.937 30 306.644 30H303.484C303.217 30 302.99 29.9067 302.804 29.72C302.617 29.5333 302.524 29.3067 302.524 29.04V2.56C302.524 2.29333 302.617 2.06667 302.804 1.88C302.99 1.69333 303.217 1.6 303.484 1.6H306.884C307.177 1.6 307.404 1.69333 307.564 1.88C307.75 2.06667 307.844 2.29333 307.844 2.56V11.44C308.51 10.6667 309.337 10.04 310.324 9.56C311.337 9.05333 312.564 8.8 314.004 8.8C315.417 8.8 316.644 9.04 317.684 9.52C318.724 10 319.59 10.68 320.284 11.56C321.004 12.4133 321.55 13.4133 321.924 14.56C322.297 15.7067 322.497 16.9467 322.524 18.28C322.55 18.76 322.564 19.2 322.564 19.6C322.564 19.9733 322.55 20.4 322.524 20.88C322.47 22.2667 322.257 23.5467 321.884 24.72C321.51 25.8667 320.977 26.8667 320.284 27.72C319.59 28.5733 318.724 29.24 317.684 29.72C316.644 30.1733 315.417 30.4 314.004 30.4ZM312.524 26.12C313.67 26.12 314.564 25.88 315.204 25.4C315.844 24.8933 316.297 24.24 316.564 23.44C316.857 22.64 317.03 21.76 317.084 20.8C317.137 20 317.137 19.2 317.084 18.4C317.03 17.44 316.857 16.56 316.564 15.76C316.297 14.96 315.844 14.32 315.204 13.84C314.564 13.3333 313.67 13.08 312.524 13.08C311.457 13.08 310.59 13.32 309.924 13.8C309.257 14.28 308.75 14.8933 308.404 15.64C308.057 16.36 307.87 17.12 307.844 17.92C307.817 18.4 307.804 18.92 307.804 19.48C307.804 20.0133 307.817 20.52 307.844 21C307.897 21.8267 308.07 22.64 308.364 23.44C308.684 24.2133 309.177 24.8533 309.844 25.36C310.537 25.8667 311.43 26.12 312.524 26.12ZM328.015 30C327.748 30 327.522 29.9067 327.335 29.72C327.148 29.5333 327.055 29.3067 327.055 29.04V2.56C327.055 2.29333 327.148 2.06667 327.335 1.88C327.522 1.69333 327.748 1.6 328.015 1.6H331.335C331.602 1.6 331.828 1.69333 332.015 1.88C332.202 2.06667 332.295 2.29333 332.295 2.56V29.04C332.295 29.3067 332.202 29.5333 332.015 29.72C331.828 29.9067 331.602 30 331.335 30H328.015ZM341.361 37.6C341.148 37.6 340.961 37.52 340.801 37.36C340.641 37.2 340.561 37.0133 340.561 36.8C340.561 36.6933 340.561 36.5867 340.561 36.48C340.588 36.4 340.641 36.2933 340.721 36.16L343.841 28.76L336.161 10.64C336.054 10.3733 336.001 10.1867 336.001 10.08C336.028 9.84 336.121 9.64 336.281 9.48C336.441 9.29333 336.641 9.2 336.881 9.2H340.121C340.441 9.2 340.681 9.28 340.841 9.44C341.001 9.6 341.121 9.77333 341.201 9.96L346.521 23.04L352.001 9.96C352.081 9.74667 352.201 9.57333 352.361 9.44C352.521 9.28 352.761 9.2 353.081 9.2H356.281C356.494 9.2 356.681 9.28 356.841 9.44C357.028 9.6 357.121 9.78667 357.121 10C357.121 10.16 357.068 10.3733 356.961 10.64L345.641 36.84C345.534 37.0533 345.401 37.2267 345.241 37.36C345.081 37.52 344.841 37.6 344.521 37.6H341.361ZM373.437 30C373.064 30 372.784 29.9067 372.597 29.72C372.411 29.5333 372.251 29.2933 372.117 29L366.397 10.44C366.371 10.3067 366.357 10.1867 366.357 10.08C366.357 9.84 366.437 9.64 366.597 9.48C366.784 9.29333 366.984 9.2 367.197 9.2H370.157C370.477 9.2 370.731 9.29333 370.917 9.48C371.104 9.64 371.211 9.8 371.237 9.96L375.157 23.2L379.317 10.08C379.371 9.89333 379.491 9.70667 379.677 9.52C379.864 9.30667 380.144 9.2 380.517 9.2H382.517C382.891 9.2 383.171 9.30667 383.357 9.52C383.544 9.70667 383.664 9.89333 383.717 10.08L387.877 23.2L391.797 9.96C391.824 9.8 391.917 9.64 392.077 9.48C392.264 9.29333 392.517 9.2 392.837 9.2H395.797C396.037 9.2 396.237 9.29333 396.397 9.48C396.584 9.64 396.677 9.84 396.677 10.08C396.677 10.1867 396.651 10.3067 396.597 10.44L390.877 29C390.797 29.2933 390.651 29.5333 390.437 29.72C390.251 29.9067 389.971 30 389.597 30H386.997C386.624 30 386.331 29.9067 386.117 29.72C385.904 29.5333 385.757 29.2933 385.677 29L381.517 16.36L377.357 29C377.251 29.2933 377.091 29.5333 376.877 29.72C376.691 29.9067 376.397 30 375.997 30H373.437ZM401.53 30C401.263 30 401.036 29.9067 400.85 29.72C400.663 29.5333 400.57 29.3067 400.57 29.04V10.16C400.57 9.89333 400.663 9.66667 400.85 9.48C401.036 9.29333 401.263 9.2 401.53 9.2H404.85C405.143 9.2 405.37 9.29333 405.53 9.48C405.716 9.66667 405.81 9.89333 405.81 10.16V29.04C405.81 29.3067 405.716 29.5333 405.53 29.72C405.37 29.9067 405.143 30 404.85 30H401.53ZM401.37 5.76C401.076 5.76 400.836 5.68 400.65 5.52C400.49 5.33333 400.41 5.09333 400.41 4.8V1.92C400.41 1.65333 400.49 1.42667 400.65 1.24C400.836 1.05333 401.076 0.96 401.37 0.96H405.01C405.303 0.96 405.543 1.05333 405.73 1.24C405.916 1.42667 406.01 1.65333 406.01 1.92V4.8C406.01 5.09333 405.916 5.33333 405.73 5.52C405.543 5.68 405.303 5.76 405.01 5.76H401.37ZM420.517 30C418.917 30 417.57 29.72 416.477 29.16C415.383 28.6 414.57 27.7733 414.037 26.68C413.503 25.56 413.237 24.1733 413.237 22.52V13.44H410.077C409.81 13.44 409.583 13.3467 409.397 13.16C409.21 12.9733 409.117 12.7467 409.117 12.48V10.16C409.117 9.89333 409.21 9.66667 409.397 9.48C409.583 9.29333 409.81 9.2 410.077 9.2H413.237V2.56C413.237 2.29333 413.317 2.06667 413.477 1.88C413.663 1.69333 413.903 1.6 414.197 1.6H417.437C417.703 1.6 417.93 1.69333 418.117 1.88C418.303 2.06667 418.397 2.29333 418.397 2.56V9.2H423.397C423.663 9.2 423.89 9.29333 424.077 9.48C424.263 9.66667 424.357 9.89333 424.357 10.16V12.48C424.357 12.7467 424.263 12.9733 424.077 13.16C423.89 13.3467 423.663 13.44 423.397 13.44H418.397V22.12C418.397 23.2133 418.583 24.0667 418.957 24.68C419.357 25.2933 420.037 25.6 420.997 25.6H423.757C424.023 25.6 424.25 25.6933 424.437 25.88C424.623 26.0667 424.717 26.2933 424.717 26.56V29.04C424.717 29.3067 424.623 29.5333 424.437 29.72C424.25 29.9067 424.023 30 423.757 30H420.517ZM429.265 30C428.998 30 428.772 29.9067 428.585 29.72C428.398 29.5333 428.305 29.3067 428.305 29.04V2.56C428.305 2.29333 428.398 2.06667 428.585 1.88C428.772 1.69333 428.998 1.6 429.265 1.6H432.825C433.118 1.6 433.345 1.69333 433.505 1.88C433.692 2.06667 433.785 2.29333 433.785 2.56V11.68C434.505 10.8267 435.385 10.1333 436.425 9.6C437.465 9.06667 438.745 8.8 440.265 8.8C441.892 8.8 443.305 9.17333 444.505 9.92C445.732 10.64 446.678 11.6667 447.345 13C448.012 14.3333 448.345 15.9333 448.345 17.8V29.04C448.345 29.3067 448.252 29.5333 448.065 29.72C447.878 29.9067 447.652 30 447.385 30H443.785C443.518 30 443.292 29.9067 443.105 29.72C442.918 29.5333 442.825 29.3067 442.825 29.04V18.04C442.825 16.4933 442.438 15.28 441.665 14.4C440.918 13.52 439.825 13.08 438.385 13.08C436.998 13.08 435.878 13.52 435.025 14.4C434.198 15.28 433.785 16.4933 433.785 18.04V29.04C433.785 29.3067 433.692 29.5333 433.505 29.72C433.345 29.9067 433.118 30 432.825 30H429.265ZM470.282 30.4C468.655 30.4 467.242 30.04 466.042 29.32C464.869 28.5733 463.962 27.5333 463.322 26.2C462.682 24.84 462.362 23.24 462.362 21.4V10.16C462.362 9.89333 462.455 9.66667 462.642 9.48C462.829 9.29333 463.055 9.2 463.322 9.2H466.842C467.135 9.2 467.362 9.29333 467.522 9.48C467.709 9.66667 467.802 9.89333 467.802 10.16V21.16C467.802 24.4667 469.255 26.12 472.162 26.12C473.549 26.12 474.642 25.68 475.442 24.8C476.269 23.92 476.682 22.7067 476.682 21.16V10.16C476.682 9.89333 476.775 9.66667 476.962 9.48C477.149 9.29333 477.375 9.2 477.642 9.2H481.162C481.429 9.2 481.655 9.29333 481.842 9.48C482.029 9.66667 482.122 9.89333 482.122 10.16V29.04C482.122 29.3067 482.029 29.5333 481.842 29.72C481.655 29.9067 481.429 30 481.162 30H477.922C477.629 30 477.389 29.9067 477.202 29.72C477.042 29.5333 476.962 29.3067 476.962 29.04V27.4C476.242 28.3333 475.349 29.0667 474.282 29.6C473.215 30.1333 471.882 30.4 470.282 30.4ZM495.286 30.4C493.686 30.4 492.312 30.2133 491.166 29.84C490.046 29.4667 489.126 29 488.406 28.44C487.686 27.88 487.152 27.32 486.806 26.76C486.459 26.2 486.272 25.7333 486.246 25.36C486.219 25.0667 486.299 24.84 486.486 24.68C486.699 24.4933 486.926 24.4 487.166 24.4H490.326C490.432 24.4 490.526 24.4133 490.606 24.44C490.686 24.4667 490.792 24.5467 490.926 24.68C491.272 24.9733 491.632 25.28 492.006 25.6C492.406 25.92 492.872 26.2 493.406 26.44C493.939 26.6533 494.606 26.76 495.406 26.76C496.446 26.76 497.312 26.56 498.006 26.16C498.726 25.7333 499.086 25.1333 499.086 24.36C499.086 23.8 498.926 23.3467 498.606 23C498.312 22.6533 497.752 22.3467 496.926 22.08C496.099 21.7867 494.926 21.48 493.406 21.16C491.912 20.8133 490.672 20.3733 489.686 19.84C488.699 19.3067 487.966 18.64 487.486 17.84C487.006 17.04 486.766 16.1067 486.766 15.04C486.766 14 487.072 13.0133 487.686 12.08C488.326 11.12 489.259 10.3333 490.486 9.72C491.739 9.10667 493.286 8.8 495.126 8.8C496.566 8.8 497.819 8.98667 498.886 9.36C499.952 9.70667 500.832 10.1467 501.526 10.68C502.246 11.2133 502.792 11.76 503.166 12.32C503.539 12.8533 503.739 13.32 503.766 13.72C503.792 14.0133 503.712 14.2533 503.526 14.44C503.339 14.6 503.126 14.68 502.886 14.68H499.926C499.792 14.68 499.672 14.6533 499.566 14.6C499.459 14.5467 499.352 14.48 499.246 14.4C498.952 14.1333 498.632 13.8533 498.286 13.56C497.939 13.2667 497.512 13.0133 497.006 12.8C496.526 12.56 495.886 12.44 495.086 12.44C494.072 12.44 493.299 12.6667 492.766 13.12C492.232 13.5467 491.966 14.0933 491.966 14.76C491.966 15.2133 492.086 15.6133 492.326 15.96C492.592 16.28 493.112 16.5867 493.886 16.88C494.659 17.1733 495.832 17.48 497.406 17.8C499.192 18.12 500.606 18.6 501.646 19.24C502.712 19.8533 503.459 20.5733 503.886 21.4C504.339 22.2 504.566 23.0933 504.566 24.08C504.566 25.28 504.206 26.36 503.486 27.32C502.792 28.28 501.752 29.04 500.366 29.6C499.006 30.1333 497.312 30.4 495.286 30.4Z" fill="white"/>
</svg>
